<?xml version="1.0" encoding="utf-8"?>
<!-- Generator: Adobe Illustrator 19.2.0, SVG Export Plug-In . SVG Version: 6.00 Build 0)  -->
<svg version="1.1" id="Layer_1" xmlns="http://www.w3.org/2000/svg" xmlns:xlink="http://www.w3.org/1999/xlink" x="0px" y="0px"
	 viewBox="0 0 232.5 146" style="enable-background:new 0 0 232.5 146;" xml:space="preserve">
<style type="text/css">
	.st0{fill:none;stroke:#FFFFFF;stroke-width:6;stroke-linecap:round;stroke-linejoin:round;stroke-miterlimit:10;}
</style>
<path class="st0" d="M91.3,78.9l0-13.5 M91.9,100.8c-0.5-2-0.5-3.3-0.5-5.6l0-1.8 M132.7,39.3v55.9c0,12.5-9.3,22.8-20.7,22.8
	c-5.5,0-10.6-2.4-14.3-6.4"/>
<path class="st0" d="M40.7,39.3v55.9c0,12.5-9.3,22.8-20.7,22.8c-5.5,0-10.6-2.4-14.3-6.4"/>
<path class="st0" d="M166.5,125V69.2"/>
<path class="st0" d="M132.7,86.6c0-7.7,5.6-14,12.4-14c6.8,0,12.4,6.3,12.4,14v18.1"/>
<path class="st0" d="M199.8,86.6c0-7.7,5.6-14,12.4-14c6.8,0,12.4,6.3,12.4,14v18.1"/>
<path class="st0" d="M166.5,125.4c0,7.7-5.6,14-12.4,14c-6.8,0-12.4-6.3-12.4-14v-18.1"/>
<path class="st0" d="M199.6,43v59.7c0,7.7-5.6,14-12.4,14h-5.9"/>
<path class="st0" d="M157.5,20.6v37.6c0,7.7-5.6,14-12.4,14c-6.8,0-12.4-6.3-12.4-14"/>
<path class="st0" d="M157.5,58.2V20.6c0-7.7,5.6-14,12.4-14c6.8,0,12.4,6.3,12.4,14"/>
<path class="st0" d="M224.4,20.6v37.6c0,7.7-5.6,14-12.4,14c-6.8,0-12.4-6.3-12.4-14"/>
<line class="st0" x1="224.4" y1="58.2" x2="224.4" y2="20.6"/>
<path class="st0" d="M204.5,25.5c0,6.8-6.3,12.4-14,12.4"/>
<path class="st0" d="M199.6,20.6c0-7.7,5.6-14,12.4-14c6.8,0,12.4,6.3,12.4,14"/>
<line class="st0" x1="65.6" y1="53.7" x2="65.6" y2="91.3"/>
<line class="st0" x1="65.6" y1="91.3" x2="65.6" y2="53.7"/>
<path class="st0" d="M40.8,53.4c0-7.7,5.6-14,12.4-14c6.8,0,12.4,6.3,12.4,14"/>
<line class="st0" x1="199.6" y1="58.2" x2="199.6" y2="42.5"/>
<path class="st0" d="M124.6,102.3V88.1c0,0-14.3-16.1-30.3-2.9"/>
<path class="st0" d="M100,96.8"/>
<path class="st0" d="M124.6,75.8V51.7c0-6.8-5.5-12.3-12.3-12.3c-6.8,0-12.3,5.5-12.3,12.3"/>
<path class="st0" d="M90.3,51.8L90.3,51.8c0-6.8-5.5-12.3-12.3-12.3c-6.8,0-12.3,5.5-12.3,12.3"/>
<path class="st0" d="M100,82.8v13.9c0,6.8-5.5,12.3-12.3,12.3c-6.8,0-12.3-5.5-12.3-12.3"/>
<line class="st0" x1="100" y1="66.9" x2="100" y2="74.7"/>
<line class="st0" x1="100" y1="51.7" x2="100" y2="58.8"/>
<path class="st0" d="M94.4,85c-2.4,1.9-5.4,3-8.7,3c-7.9,0-14.3-6.4-14.3-14.3c0-5.6,3.3-10.5,8-12.8"/>
<path class="st0" d="M79.5,60.9c0,0,18.9-11.8,45.1,15.2"/>
<path class="st0" d="M166.4,126.1v-7.5c0-7.7,5.5-14,12.2-14h11.9"/>
<path class="st0" d="M166.4,93.7v-7.5c0-7.7,5.5-14,12.2-14h11.9"/>
<path class="st0" d="M166.4,59.3v-7.5c0-7.7,5.5-14,12.2-14h11.9"/>
</svg>
